# xmcd
#
# Track frame offsets: 
#        150
#        22768
#        38932
#        62621
#        80218
#        96205
#        110880
#        126461
#        136795
#        159388
#        185530
#        213451
#        229171
#        248315
#        263663
#        276409
#        307261
#        317898
#
# Disc length: 4372 seconds
#
# Revision: 0
# Processed by: cddbd v1.4PL0 Copyright (c) Steve Scherf et al.
# Submitted via: ExactAudioCopy v0.90b4
#
DISCID=05111212
DTITLE=B.B.King - Everyday I Have The Blues CD1
DYEAR=2003
DGENRE=Blues
TTITLE0=Everyday I Have The Blues
TTITLE1=It's My Own Fault Baby
TTITLE2=You've Done Lost Your GoodThing Now
TTITLE3=Evil Child
TTITLE4=Long Nights
TTITLE5=Mr.Pawnbroker
TTITLE6=Walkin' And Cryin'
TTITLE7=I'm Willing To Run All The Way
TTITLE8=The Thrill Is Gone (Live)
TTITLE9=Guess Who (Live)
TTITLE10=Payin' The Cost To Be The Boss
TTITLE11=The Letter (Live)
TTITLE12=Sweet Sixteen (Live)
TTITLE13=How Blue Can You Get (Live)
TTITLE14=Please Love Me
TTITLE15=Outside Help (Live)
TTITLE16=Recession Blues
TTITLE17=Don't Keep Me Waiting
EXTD=
EXTT0=
EXTT1=
EXTT2=
EXTT3=
EXTT4=
EXTT5=
EXTT6=
EXTT7=
EXTT8=
EXTT9=
EXTT10=
EXTT11=
EXTT12=
EXTT13=
EXTT14=
EXTT15=
EXTT16=
EXTT17=
PLAYORDER=
